<svg width="181" height="180" viewBox="0 0 181 180" fill="none" xmlns="http://www.w3.org/2000/svg">
<ellipse opacity="0.1" cx="90.5" cy="174.599" rx="90" ry="5.4" fill="#7C7B91"/>
<path fill-rule="evenodd" clip-rule="evenodd" d="M70.1727 39.6008C71.3479 35.4455 75.1684 32.4008 79.7 32.4008H116.213C113.169 34.2349 110.544 36.6941 108.517 39.6008H70.1727ZM106.425 43.2008H53.6C47.6353 43.2008 42.8 48.0361 42.8 54.0008V120.601H98.6H99.5C100.494 120.601 101.3 121.407 101.3 122.401V131.851C101.3 139.555 107.546 145.801 115.25 145.801C122.954 145.801 129.2 139.555 129.2 131.851V79.2008C115.282 79.2008 104 67.9184 104 54.0008C104 50.1358 104.87 46.4741 106.425 43.2008ZM132.8 78.9456V129.451C137.908 128.595 141.8 124.152 141.8 118.801V75.8295C139.08 77.4027 136.04 78.4822 132.8 78.9456ZM145.4 73.3044V118.801C145.4 126.159 139.881 132.228 132.757 133.095C132.118 142.207 124.524 149.401 115.25 149.401C115.093 149.401 114.936 149.399 114.78 149.395L114.8 149.401H50C40.0589 149.401 32 141.342 32 131.401V127.801C32 123.824 35.2235 120.601 39.2 120.601V54.0008C39.2 46.0479 45.6471 39.6008 53.6 39.6008H66.4701C67.7209 33.4387 73.1688 28.8008 79.7 28.8008H127.4V28.8641C127.995 28.8221 128.595 28.8008 129.2 28.8008C143.118 28.8008 154.4 40.0832 154.4 54.0008C154.4 61.7497 150.902 68.6817 145.4 73.3044ZM22.1 138.151C22.1 137.405 22.7044 136.801 23.45 136.801C24.1956 136.801 24.8 137.405 24.8 138.151V138.601C24.8 148.542 32.8589 156.601 42.8 156.601H46.94C47.6359 156.601 48.2 157.165 48.2 157.861C48.2 158.557 47.6359 159.121 46.94 159.121H42.8C30.8514 159.121 22.1 150.511 22.1 138.601V138.151ZM23.45 133.201C20.7162 133.201 18.5 135.417 18.5 138.151V138.601C18.5 152.537 28.9016 162.721 42.8 162.721H46.94C49.6241 162.721 51.8 160.545 51.8 157.861C51.8 155.177 49.6241 153.001 46.94 153.001H42.8C34.8471 153.001 28.4 146.554 28.4 138.601V138.151C28.4 135.417 26.1838 133.201 23.45 133.201ZM51.8 90.9008C51.8 88.4155 53.8147 86.4008 56.3 86.4008H83.3C85.7853 86.4008 87.8 88.4155 87.8 90.9008C87.8 93.3861 85.7853 95.4008 83.3 95.4008H56.3C53.8147 95.4008 51.8 93.3861 51.8 90.9008ZM56.3 90.0008C55.8029 90.0008 55.4 90.4037 55.4 90.9008C55.4 91.3978 55.8029 91.8008 56.3 91.8008H83.3C83.7971 91.8008 84.2 91.3978 84.2 90.9008C84.2 90.4037 83.7971 90.0008 83.3 90.0008H56.3ZM67.0174 79.4838C67.1545 79.6209 67.3707 79.6895 67.666 79.6895C67.9191 79.6895 68.1037 79.6209 68.2197 79.4838C68.3463 79.3467 68.4096 79.1305 68.4096 78.8352V77.5537C69.3904 77.4482 70.2816 77.1687 71.0832 76.7152C71.8848 76.2512 72.5281 75.5762 73.0133 74.6902C73.509 73.7937 73.7568 72.6863 73.7568 71.368C73.7568 70.2289 73.4984 69.2902 72.9816 68.552C72.4648 67.8031 71.8637 67.2283 71.1781 66.8275C70.4926 66.4268 69.5697 65.9732 68.4096 65.467V61.1955C68.9369 61.2166 69.3799 61.2746 69.7385 61.3695C70.1076 61.4645 70.482 61.5857 70.8617 61.7334C71.1254 61.8389 71.2994 61.8916 71.3838 61.8916C71.5947 61.8916 71.8162 61.7439 72.0482 61.4486C72.2908 61.1533 72.4965 60.8105 72.6652 60.4203C72.834 60.0195 72.9184 59.6926 72.9184 59.4395C72.9184 59.1547 72.7232 58.8699 72.333 58.5852C71.9533 58.3004 71.4154 58.0578 70.7193 57.8574C70.0338 57.657 69.2639 57.541 68.4096 57.5094V56.6393C68.4096 56.3334 68.3463 56.1172 68.2197 55.9906C68.0932 55.8641 67.877 55.8008 67.5711 55.8008C67.318 55.8008 67.1281 55.8693 67.0016 56.0064C66.875 56.133 66.8117 56.3439 66.8117 56.6393V57.5252C65.7887 57.6412 64.85 57.9207 63.9957 58.3637C63.152 58.8066 62.4717 59.4395 61.9549 60.2621C61.4486 61.0742 61.1955 62.0709 61.1955 63.2521C61.1955 64.4967 61.4645 65.5092 62.0023 66.2896C62.5508 67.0596 63.1889 67.6449 63.9166 68.0457C64.6549 68.4359 65.6199 68.8525 66.8117 69.2955V73.9309C66.1578 73.9309 65.5566 73.8412 65.0082 73.6619C64.4703 73.4826 63.9166 73.2506 63.3471 72.9658C62.9463 72.7549 62.6826 72.6494 62.5561 72.6494C62.3662 72.6494 62.1289 72.7971 61.8441 73.0924C61.5594 73.3771 61.3115 73.7199 61.1006 74.1207C60.9002 74.5215 60.8 74.859 60.8 75.1332C60.8 75.4602 61.0373 75.8082 61.5119 76.1773C61.9971 76.5465 62.6932 76.8682 63.6002 77.1424C64.5178 77.4061 65.5883 77.559 66.8117 77.6012V78.8352C66.8117 79.1305 66.8803 79.3467 67.0174 79.4838ZM65.6727 61.9865C65.8836 61.7018 66.2633 61.4908 66.8117 61.3537V64.7393C66.3371 64.465 65.9732 64.1803 65.7201 63.885C65.4775 63.5896 65.3562 63.2416 65.3562 62.8408C65.3562 62.5455 65.4617 62.2607 65.6727 61.9865ZM69.2955 72.9658C69.074 73.2506 68.7787 73.4668 68.4096 73.6145V70.0549C69.2217 70.5189 69.6277 71.1307 69.6277 71.89C69.6277 72.3225 69.517 72.6811 69.2955 72.9658ZM51.8 105.301C51.8 102.815 53.8147 100.801 56.3 100.801H110.3C112.785 100.801 114.8 102.815 114.8 105.301C114.8 107.786 112.785 109.801 110.3 109.801H56.3C53.8147 109.801 51.8 107.786 51.8 105.301ZM56.3 104.401C55.8029 104.401 55.4 104.804 55.4 105.301C55.4 105.798 55.8029 106.201 56.3 106.201H110.3C110.797 106.201 111.2 105.798 111.2 105.301C111.2 104.804 110.797 104.401 110.3 104.401H56.3ZM107.6 54.0008C107.6 42.0714 117.271 32.4008 129.2 32.4008C141.129 32.4008 150.8 42.0714 150.8 54.0008C150.8 65.9301 141.129 75.6008 129.2 75.6008C117.271 75.6008 107.6 65.9301 107.6 54.0008ZM124.7 42.3008C124.7 39.8155 126.715 37.8008 129.2 37.8008C131.685 37.8008 133.7 39.8155 133.7 42.3008V53.1008C133.7 55.5861 131.685 57.6008 129.2 57.6008C126.715 57.6008 124.7 55.5861 124.7 53.1008V42.3008ZM129.2 41.4008C128.703 41.4008 128.3 41.8037 128.3 42.3008V53.1008C128.3 53.5978 128.703 54.0008 129.2 54.0008C129.697 54.0008 130.1 53.5978 130.1 53.1008V42.3008C130.1 41.8037 129.697 41.4008 129.2 41.4008ZM129.2 70.2008C126.715 70.2008 124.7 68.1861 124.7 65.7008C124.7 63.2155 126.715 61.2008 129.2 61.2008C131.685 61.2008 133.7 63.2155 133.7 65.7008C133.7 68.1861 131.685 70.2008 129.2 70.2008ZM128.3 65.7008C128.3 66.1978 128.703 66.6008 129.2 66.6008C129.697 66.6008 130.1 66.1978 130.1 65.7008C130.1 65.2037 129.697 64.8008 129.2 64.8008C128.703 64.8008 128.3 65.2037 128.3 65.7008Z" fill="#7C7B91"/>
</svg>
