<svg width="181" height="180" viewBox="0 0 181 180" fill="none" xmlns="http://www.w3.org/2000/svg">
<ellipse opacity="0.1" cx="90.5" cy="174.599" rx="90" ry="5.4" fill="#7C7B91"/>
<path fill-rule="evenodd" clip-rule="evenodd" d="M47.0278 23.6937C47.7733 23.7033 48.3699 24.3154 48.3603 25.0609C48.3508 25.8065 47.7386 26.4031 46.9931 26.3935L46.5431 26.3877C36.6028 26.2602 28.4412 34.215 28.3137 44.1553L28.2605 48.2949C28.2516 48.9907 27.6803 49.5476 26.9845 49.5386C26.2886 49.5297 25.7318 48.9584 25.7407 48.2626L25.7939 44.1229C25.9472 32.1753 34.6685 23.5351 46.5778 23.6879L47.0278 23.6937ZM51.96 25.1071C51.9951 22.3735 49.8075 20.1291 47.074 20.094L46.624 20.0882C32.6885 19.9094 22.3725 30.1795 22.1942 44.0767L22.141 48.2164C22.1066 50.9003 24.2544 53.1039 26.9383 53.1384C29.6222 53.1728 31.8258 51.025 31.8602 48.3411L31.9134 44.2015C32.0154 36.2492 38.5447 29.8854 46.497 29.9874L46.9469 29.9932C49.6805 30.0283 51.9249 27.8407 51.96 25.1071ZM43.4427 120.077L43.4431 120.079L43.4435 120.084C43.4426 120.079 43.4425 120.077 43.4427 120.077ZM43.4455 120.092C43.4602 120.042 43.5827 119.658 44.5779 119.023C45.6188 118.359 47.2378 117.674 49.4292 117.023C50.6674 117.419 52.004 117.789 53.4235 118.131C61.1363 119.987 71.6986 121.118 83.3008 121.118C91.237 121.118 98.6777 120.589 105.049 119.664C104.952 120.563 104.902 121.477 104.902 122.402C104.902 123.454 104.966 124.491 105.092 125.509C98.7902 126.309 91.321 126.775 83.3008 126.775C71.8806 126.775 61.5924 125.831 54.204 124.326C50.4951 123.57 47.6113 122.692 45.6983 121.771C44.7377 121.308 44.1167 120.879 43.7599 120.524C43.5143 120.279 43.4575 120.137 43.4455 120.092ZM123.158 98.1713C114.671 100.599 108.015 107.366 105.744 115.918C99.3147 116.927 91.6044 117.518 83.3008 117.518C71.8964 117.518 61.6302 116.404 54.2661 114.631C50.5698 113.741 47.7049 112.708 45.8077 111.629C43.7698 110.469 43.4437 109.611 43.4437 109.289V87.6326C43.6681 87.7541 43.8994 87.8718 44.1362 87.9859C46.4392 89.095 49.656 90.0451 53.4855 90.8252C61.174 92.3914 71.7144 93.3468 83.3008 93.3468C94.8872 93.3468 105.428 92.3914 113.116 90.8252C116.946 90.0451 120.162 89.095 122.465 87.9859C122.702 87.8718 122.933 87.7541 123.158 87.6326V98.1713ZM126.758 83.0611V97.4224C127.852 97.2773 128.968 97.2025 130.102 97.2025C144.02 97.2025 155.302 108.485 155.302 122.402C155.302 136.32 144.02 147.602 130.102 147.602C128.924 147.602 127.766 147.522 126.631 147.365C126.158 149.283 124.429 150.73 122.575 151.786C120.256 153.105 117.02 154.234 113.178 155.159C105.465 157.016 94.903 158.146 83.3008 158.146C71.6986 158.146 61.1363 157.016 53.4235 155.159C49.5812 154.234 46.3456 153.105 44.0269 151.786C41.8488 150.546 39.8437 148.765 39.8437 146.318V120.089V120.089C39.8437 118.212 41.2511 116.875 42.6417 115.988C43.1817 115.644 43.7965 115.316 44.4766 115.005C44.3231 114.923 44.1732 114.841 44.0269 114.757C41.8488 113.518 39.8437 111.737 39.8437 109.289V83.0611V83.0609C39.8438 81.2224 41.1962 79.9027 42.5443 79.0228C43.1089 78.6542 43.7579 78.3055 44.4795 77.9754C44.3256 77.8934 44.1753 77.8107 44.0287 77.7273C41.8506 76.4876 39.8454 74.7068 39.8454 72.2593V46.0308C39.8454 45.687 39.9418 45.3658 40.1089 45.0926C40.5247 40.0571 59.7037 36.0025 83.3021 36.0025C106.897 36.0025 126.075 40.056 126.495 45.0907C126.663 45.3643 126.76 45.6862 126.76 46.0308V72.2593C126.76 74.7068 124.755 76.4876 122.576 77.7273C122.429 77.811 122.278 77.894 122.124 77.9762C122.688 78.2342 123.205 78.5027 123.672 78.782C125.188 79.6898 126.758 81.0752 126.758 83.0609V83.0611ZM105.788 129.049C108.093 137.503 114.69 144.186 123.092 146.615C122.924 147.042 122.372 147.759 120.794 148.657C118.897 149.737 116.032 150.769 112.336 151.659C104.971 153.432 94.7052 154.546 83.3008 154.546C71.8964 154.546 61.6302 153.432 54.2661 151.659C50.5698 150.769 47.7049 149.737 45.8077 148.657C43.7698 147.497 43.4437 146.64 43.4437 146.318V124.661C43.6681 124.782 43.8994 124.9 44.1362 125.014C46.4392 126.123 49.656 127.073 53.4855 127.853C61.174 129.42 71.7144 130.375 83.3008 130.375C91.5499 130.375 99.2612 129.891 105.788 129.049ZM43.4454 48.8367V72.2593C43.4454 72.5812 43.7716 73.4387 45.8094 74.5986C47.7067 75.6784 50.5716 76.7108 54.2678 77.6006C61.6319 79.3735 71.8981 80.4879 83.3026 80.4879C94.707 80.4879 104.973 79.3735 112.337 77.6006C114.112 77.1735 115.694 76.7135 117.07 76.2312L117.072 76.2247L117.082 76.2273C118.567 75.706 119.812 75.1587 120.796 74.5986C122.834 73.4387 123.16 72.5812 123.16 72.2593V48.8362C116.631 52.1729 101.244 54.5167 83.3021 54.5167C65.361 54.5167 49.9744 52.1731 43.4454 48.8367ZM121.823 81.8707C120.768 81.2392 119.211 80.6004 117.17 79.994C115.933 80.3902 114.598 80.7593 113.18 81.1006C105.467 82.9574 94.9047 84.0879 83.3026 84.0879C71.7004 84.0879 61.138 82.9574 53.4252 81.1006C51.9538 80.7464 50.5713 80.3623 49.2952 79.949L49.3188 80.0277C47.1298 80.6851 45.5279 81.3743 44.512 82.0374C43.5788 82.6466 43.46 83.0128 43.4455 83.0643C43.4574 83.1088 43.5142 83.2511 43.7599 83.4956C44.1167 83.8508 44.7377 84.2798 45.6983 84.7424C47.6113 85.6637 50.4951 86.5421 54.204 87.2976C61.5924 88.8027 71.8806 89.7468 83.3008 89.7468C94.721 89.7468 105.009 88.8027 112.398 87.2976C116.107 86.5421 118.99 85.6637 120.903 84.7424C121.864 84.2798 122.485 83.8508 122.842 83.4956C123.087 83.2511 123.144 83.1088 123.156 83.0643L123.156 83.0637C123.14 83.0133 123.003 82.5773 121.823 81.8707ZM123.159 83.049C123.159 83.049 123.159 83.0513 123.158 83.0559C123.158 83.0513 123.159 83.049 123.159 83.049ZM43.4435 83.056C43.4426 83.0513 43.4425 83.049 43.4427 83.049C43.4429 83.049 43.4433 83.0513 43.4435 83.056ZM130.102 100.802C118.173 100.802 108.502 110.473 108.502 122.402C108.502 134.332 118.173 144.002 130.102 144.002C142.031 144.002 151.702 134.332 151.702 122.402C151.702 110.473 142.031 100.802 130.102 100.802ZM130.102 130.502C131.345 130.502 132.352 129.495 132.352 128.252C132.352 127.01 131.345 126.002 130.102 126.002C128.859 126.002 127.852 127.01 127.852 128.252C127.852 129.495 128.859 130.502 130.102 130.502ZM130.102 115.202C127.023 115.202 124.283 116.648 122.521 118.904C121.909 119.687 120.777 119.826 119.994 119.214C119.211 118.602 119.072 117.471 119.684 116.688C122.099 113.596 125.868 111.602 130.102 111.602C134.336 111.602 138.105 113.596 140.521 116.688C141.133 117.471 140.994 118.602 140.21 119.214C139.427 119.826 138.296 119.687 137.684 118.904C135.921 116.648 133.181 115.202 130.102 115.202ZM125.221 124.786C126.356 123.332 128.12 122.402 130.102 122.402C132.084 122.402 133.848 123.332 134.984 124.786C135.596 125.569 136.727 125.708 137.51 125.096C138.294 124.484 138.433 123.353 137.821 122.57C136.032 120.28 133.239 118.802 130.102 118.802C126.965 118.802 124.172 120.28 122.384 122.57C121.772 123.353 121.911 124.484 122.694 125.096C123.477 125.708 124.609 125.569 125.221 124.786Z" fill="#7C7B91"/>
</svg>
