<svg width="181" height="180" viewBox="0 0 181 180" fill="none" xmlns="http://www.w3.org/2000/svg">
<ellipse opacity="0.1" cx="90.5" cy="174.599" rx="90" ry="5.4" fill="#7C7B91"/>
<path fill-rule="evenodd" clip-rule="evenodd" d="M43.7016 45.0016C43.7016 39.0369 48.5369 34.2016 54.5016 34.2016H104.825C105.18 34.2016 105.533 34.219 105.882 34.2534V58.4212C105.882 62.3977 109.106 65.6212 113.082 65.6212H135.502V110.381C133.762 110.002 131.955 109.802 130.102 109.802C116.184 109.802 104.902 121.084 104.902 135.002C104.902 139.122 105.89 143.011 107.643 146.444H54.5016C48.5369 146.444 43.7016 141.609 43.7016 135.644V45.0016ZM109.882 150.044H54.5016C46.5487 150.044 40.1016 143.597 40.1016 135.644V45.0016C40.1016 37.0487 46.5487 30.6016 54.5016 30.6016H104.825C108.644 30.6016 112.307 32.1187 115.008 34.8192L134.884 54.6955C137.584 57.396 139.102 61.0587 139.102 64.8778V65.4932L139.102 65.6212H139.102V111.456C148.574 115.079 155.302 124.255 155.302 135.002C155.302 148.919 144.019 160.202 130.102 160.202C121.822 160.202 114.476 156.209 109.882 150.044ZM60.4288 56.3288C61.1317 55.6258 62.2714 55.6258 62.9744 56.3288L69.3516 62.706L75.7288 56.3288C76.4317 55.6258 77.5714 55.6258 78.2744 56.3288C78.9773 57.0317 78.9773 58.1714 78.2744 58.8744L71.8971 65.2516L78.2744 71.6288C78.9773 72.3317 78.9773 73.4714 78.2744 74.1744C77.5714 74.8773 76.4317 74.8773 75.7288 74.1744L69.3516 67.7971L62.9744 74.1744C62.2714 74.8773 61.1317 74.8773 60.4288 74.1744C59.7258 73.4714 59.7258 72.3317 60.4288 71.6288L66.806 65.2516L60.4288 58.8744C59.7258 58.1714 59.7258 57.0317 60.4288 56.3288ZM59.9016 90.9016C59.9016 88.4163 61.9163 86.4016 64.4016 86.4016H91.4016C93.8868 86.4016 95.9016 88.4163 95.9016 90.9016C95.9016 93.3868 93.8868 95.4016 91.4016 95.4016H64.4016C61.9163 95.4016 59.9016 93.3868 59.9016 90.9016ZM64.4016 90.0016C63.9045 90.0016 63.5016 90.4045 63.5016 90.9016C63.5016 91.3986 63.9045 91.8016 64.4016 91.8016H91.4016C91.8986 91.8016 92.3016 91.3986 92.3016 90.9016C92.3016 90.4045 91.8986 90.0016 91.4016 90.0016H64.4016ZM64.4016 100.802C61.9163 100.802 59.9016 102.816 59.9016 105.302C59.9016 107.787 61.9163 109.802 64.4016 109.802H114.802C117.287 109.802 119.302 107.787 119.302 105.302C119.302 102.816 117.287 100.802 114.802 100.802H64.4016ZM63.5016 105.302C63.5016 104.805 63.9045 104.402 64.4016 104.402H114.802C115.299 104.402 115.702 104.805 115.702 105.302C115.702 105.799 115.299 106.202 114.802 106.202H64.4016C63.9045 106.202 63.5016 105.799 63.5016 105.302ZM144.648 45.4079C143.467 43.7304 141.338 43.0059 139.379 43.614C136.311 44.5658 135.063 48.2319 136.913 50.8573L140.836 56.4257C142.052 58.1514 142.71 60.2082 142.721 62.3192L142.76 69.1622C142.774 71.7796 144.906 73.8904 147.524 73.8789C150.144 73.8673 152.259 71.7328 152.246 69.1123L152.209 61.6798C152.191 58.0483 151.06 54.5096 148.969 51.5408L144.648 45.4079ZM140.446 47.0523C140.914 46.9069 141.423 47.0801 141.705 47.4812L146.026 53.6141C147.693 55.981 148.595 58.8023 148.609 61.6975L148.646 69.1301C148.649 69.7617 148.139 70.2761 147.508 70.2789C146.877 70.2817 146.363 69.7729 146.36 69.1421L146.321 62.2991C146.306 59.4526 145.418 56.6794 143.779 54.3524L139.856 48.784C139.414 48.1563 139.712 47.2799 140.446 47.0523ZM108.502 135.002C108.502 123.072 118.172 113.402 130.102 113.402C142.031 113.402 151.702 123.072 151.702 135.002C151.702 146.931 142.031 156.602 130.102 156.602C118.172 156.602 108.502 146.931 108.502 135.002ZM125.602 123.302C125.602 120.816 127.616 118.802 130.102 118.802C132.587 118.802 134.602 120.816 134.602 123.302V134.102C134.602 136.587 132.587 138.602 130.102 138.602C127.616 138.602 125.602 136.587 125.602 134.102V123.302ZM130.102 122.402C129.605 122.402 129.202 122.805 129.202 123.302V134.102C129.202 134.599 129.605 135.002 130.102 135.002C130.599 135.002 131.002 134.599 131.002 134.102V123.302C131.002 122.805 130.599 122.402 130.102 122.402ZM130.102 151.202C127.616 151.202 125.602 149.187 125.602 146.702C125.602 144.216 127.616 142.202 130.102 142.202C132.587 142.202 134.602 144.216 134.602 146.702C134.602 149.187 132.587 151.202 130.102 151.202ZM129.202 146.702C129.202 147.199 129.605 147.602 130.102 147.602C130.599 147.602 131.002 147.199 131.002 146.702C131.002 146.205 130.599 145.802 130.102 145.802C129.605 145.802 129.202 146.205 129.202 146.702Z" fill="#7C7B91"/>
</svg>
