<svg width="181" height="180" viewBox="0 0 181 180" fill="none" xmlns="http://www.w3.org/2000/svg">
<ellipse opacity="0.1" cx="90.5" cy="174.599" rx="90" ry="5.4" fill="#7C7B91"/>
<path fill-rule="evenodd" clip-rule="evenodd" d="M61.7016 32.3992C61.7016 20.4699 71.3722 10.7992 83.3016 10.7992C95.2309 10.7992 104.902 20.4699 104.902 32.3992C104.902 44.3286 95.2309 53.9992 83.3016 53.9992C71.3722 53.9992 61.7016 44.3286 61.7016 32.3992ZM83.3016 7.19922C69.384 7.19922 58.1016 18.4816 58.1016 32.3992C58.1016 37.7533 59.7713 42.7174 62.6184 46.7992H62.417C47.5053 46.7992 35.417 58.8875 35.417 73.7992V93.5992H27.5016C24.5192 93.5992 22.1016 96.0169 22.1016 98.9992C22.1016 101.982 24.5192 104.399 27.5016 104.399H42.617H85.1016H85.817V161.999C85.817 164.982 88.2347 167.399 91.217 167.399H98.417C101.399 167.399 103.817 164.982 103.817 161.999V104.399H143.417C148.388 104.399 152.417 100.37 152.417 95.3992V67.4069C152.417 56.6635 144.196 47.8403 133.701 46.8849V34.1992C133.701 32.211 132.09 30.5992 130.101 30.5992H126.501C124.513 30.5992 122.901 32.211 122.901 34.1992V46.7992H103.985C106.832 42.7174 108.502 37.7533 108.502 32.3992C108.502 18.4816 97.2191 7.19922 83.3016 7.19922ZM100.938 50.3992C96.3928 54.8531 90.1679 57.5992 83.3016 57.5992C82.2674 57.5992 81.2478 57.5369 80.2463 57.4159C83.7259 61.6202 85.817 67.0155 85.817 72.8992V100.799H89.417H100.217H143.417C146.399 100.799 148.817 98.3816 148.817 95.3992V67.4069C148.817 58.6534 142.204 51.4444 133.701 50.5033V64.7992C133.701 64.9125 133.696 65.025 133.686 65.1363C133.696 65.3228 133.702 65.5105 133.702 65.6992C133.702 71.1668 129.269 75.5992 123.802 75.5992C118.334 75.5992 113.902 71.1668 113.902 65.6992C113.902 60.535 117.856 56.2943 122.901 55.8396V50.3992H100.938ZM89.417 104.399H100.217V161.999C100.217 162.993 99.4111 163.799 98.417 163.799H91.217C90.2229 163.799 89.417 162.993 89.417 161.999V104.399ZM130.101 34.1992H126.501V59.6586L124.504 59.4377C124.274 59.4123 124.04 59.3992 123.802 59.3992C120.322 59.3992 117.502 62.2198 117.502 65.6992C117.502 69.1786 120.322 71.9992 123.802 71.9992C127.281 71.9992 130.102 69.1786 130.102 65.6992C130.102 65.5379 130.096 65.3782 130.084 65.2206L130.068 65.01L130.101 64.8015L130.101 64.7992V34.1992ZM142.702 112.741C142.702 110.122 144.825 107.999 147.444 107.999H157.199C159.819 107.999 161.942 110.122 161.942 112.741C161.942 115.361 159.819 117.484 157.199 117.484H147.444C144.825 117.484 142.702 115.361 142.702 112.741ZM147.444 111.599C146.813 111.599 146.302 112.111 146.302 112.741C146.302 113.372 146.813 113.884 147.444 113.884H157.199C157.83 113.884 158.342 113.372 158.342 112.741C158.342 112.111 157.83 111.599 157.199 111.599H147.444ZM78.8016 20.6992C78.8016 18.2139 80.8163 16.1992 83.3016 16.1992C85.7868 16.1992 87.8016 18.2139 87.8016 20.6992V31.4992C87.8016 33.9845 85.7868 35.9992 83.3016 35.9992C80.8163 35.9992 78.8016 33.9845 78.8016 31.4992V20.6992ZM83.3016 19.7992C82.8045 19.7992 82.4016 20.2022 82.4016 20.6992V31.4992C82.4016 31.9963 82.8045 32.3992 83.3016 32.3992C83.7986 32.3992 84.2016 31.9963 84.2016 31.4992V20.6992C84.2016 20.2022 83.7986 19.7992 83.3016 19.7992ZM83.3016 48.5992C80.8163 48.5992 78.8016 46.5845 78.8016 44.0992C78.8016 41.6139 80.8163 39.5992 83.3016 39.5992C85.7868 39.5992 87.8016 41.6139 87.8016 44.0992C87.8016 46.5845 85.7868 48.5992 83.3016 48.5992ZM82.4016 44.0992C82.4016 44.5963 82.8045 44.9992 83.3016 44.9992C83.7986 44.9992 84.2016 44.5963 84.2016 44.0992C84.2016 43.6022 83.7986 43.1992 83.3016 43.1992C82.8045 43.1992 82.4016 43.6022 82.4016 44.0992Z" fill="#7C7B91"/>
</svg>
