<svg width="181" height="180" viewBox="0 0 181 180" fill="none" xmlns="http://www.w3.org/2000/svg">
<ellipse opacity="0.1" cx="90.5" cy="174.599" rx="90" ry="5.4" fill="#7C7B91"/>
<path fill-rule="evenodd" clip-rule="evenodd" d="M97.9693 37.5436C99.7731 35.6447 99.696 32.643 97.7971 30.8392L90.7239 24.1204C88.825 22.3166 85.8233 22.3937 84.0195 24.2926C82.2157 26.1915 82.2929 29.1932 84.1918 30.997L91.265 37.7158C93.1639 39.5196 96.1655 39.4425 97.9693 37.5436ZM95.3177 33.4493C95.7751 33.8838 95.7937 34.6068 95.3592 35.0642C94.9247 35.5216 94.2017 35.5402 93.7443 35.1057L86.6711 28.3868C86.2138 27.9524 86.1952 27.2294 86.6297 26.772C87.0641 26.3146 87.7871 26.296 88.2445 26.7305L95.3177 33.4493ZM41.8969 37.7984C36.9263 37.7984 32.8969 41.8279 32.8969 46.7984V129.598C32.8969 134.185 36.3277 137.97 40.7631 138.528V66.2644C40.7631 61.2939 44.7925 57.2644 49.7631 57.2644H118.763C123.734 57.2644 127.763 61.2939 127.763 66.2644V68.6877H133.356V60.7806C133.356 55.81 129.326 51.7806 124.356 51.7806H97.7343C94.3141 51.7806 91.0409 50.3902 88.6663 47.9288L81.5474 40.5497C79.8512 38.7915 77.5132 37.7984 75.0702 37.7984H41.8969ZM136.956 68.6877V60.7806C136.956 53.8218 131.315 48.1806 124.356 48.1806H97.7343C95.2913 48.1806 92.9533 47.1875 91.2571 45.4293L84.1382 38.0502C81.7636 35.5888 78.4904 34.1984 75.0702 34.1984H41.8969C34.9381 34.1984 29.2969 39.8397 29.2969 46.7984V129.598C29.2969 136.557 34.9381 142.198 41.8969 142.198H72.5602C73.4831 155.276 84.3846 165.598 97.6969 165.598C111.009 165.598 121.911 155.276 122.834 142.198L138.23 142.198C145.189 142.198 150.83 136.557 150.83 129.598V81.2877C150.83 74.3289 145.189 68.6877 138.23 68.6877H136.956ZM122.834 138.598L138.23 138.598C143.201 138.598 147.23 134.569 147.23 129.598V81.2877C147.23 76.3171 143.201 72.2877 138.23 72.2877H58.2765C53.306 72.2877 49.2765 76.3171 49.2765 81.2877V138.598H72.5602C73.4831 125.521 84.3845 115.198 97.6969 115.198C111.009 115.198 121.911 125.521 122.834 138.598ZM106.016 34.3609C103.397 34.3945 101.301 36.5447 101.335 39.1636C101.368 41.7824 103.519 43.8782 106.137 43.8446L115.892 43.7196C118.511 43.6861 120.607 41.5359 120.573 38.917C120.54 36.2982 118.39 34.2023 115.771 34.2359L106.016 34.3609ZM104.935 39.1174C104.926 38.4866 105.431 37.9687 106.062 37.9606L115.817 37.8356C116.448 37.8275 116.966 38.3323 116.974 38.9631C116.982 39.5939 116.477 40.1119 115.846 40.1199L106.091 40.2449C105.461 40.253 104.943 39.7482 104.935 39.1174ZM76.0969 140.398C76.0969 128.469 85.7676 118.798 97.6969 118.798C109.626 118.798 119.297 128.469 119.297 140.398C119.297 152.328 109.626 161.998 97.6969 161.998C85.7676 161.998 76.0969 152.328 76.0969 140.398ZM93.1969 128.698C93.1969 126.213 95.2116 124.198 97.6969 124.198C100.182 124.198 102.197 126.213 102.197 128.698V139.498C102.197 141.984 100.182 143.998 97.6969 143.998C95.2116 143.998 93.1969 141.984 93.1969 139.498V128.698ZM97.6969 127.798C97.1999 127.798 96.7969 128.201 96.7969 128.698V139.498C96.7969 139.995 97.1999 140.398 97.6969 140.398C98.194 140.398 98.5969 139.995 98.5969 139.498V128.698C98.5969 128.201 98.194 127.798 97.6969 127.798ZM97.6969 156.598C95.2116 156.598 93.1969 154.584 93.1969 152.098C93.1969 149.613 95.2116 147.598 97.6969 147.598C100.182 147.598 102.197 149.613 102.197 152.098C102.197 154.584 100.182 156.598 97.6969 156.598ZM96.7969 152.098C96.7969 152.595 97.1999 152.998 97.6969 152.998C98.194 152.998 98.5969 152.595 98.5969 152.098C98.5969 151.601 98.194 151.198 97.6969 151.198C97.1999 151.198 96.7969 151.601 96.7969 152.098Z" fill="#7C7B91"/>
</svg>
