<svg width="181" height="180" viewBox="0 0 181 180" fill="none" xmlns="http://www.w3.org/2000/svg">
<ellipse opacity="0.1" cx="90.5" cy="174.599" rx="90" ry="5.4" fill="#7C7B91"/>
<path fill-rule="evenodd" clip-rule="evenodd" d="M138.08 27.3008C138.08 24.6818 135.957 22.5586 133.338 22.5586C130.719 22.5586 128.596 24.6818 128.596 27.3008V37.0565C128.596 39.6756 130.719 41.7987 133.338 41.7987C135.957 41.7987 138.08 39.6756 138.08 37.0565V27.3008ZM133.338 26.1586C133.969 26.1586 134.48 26.67 134.48 27.3008V37.0565C134.48 37.6873 133.969 38.1987 133.338 38.1987C132.707 38.1987 132.196 37.6873 132.196 37.0565V27.3008C132.196 26.67 132.707 26.1586 133.338 26.1586ZM18.5 61.2005C18.5 52.2535 25.753 45.0005 34.7 45.0005H117.5C126.447 45.0005 133.7 52.2535 133.7 61.2005V75.6004H148.1C155.059 75.6004 160.7 81.2416 160.7 88.2004V132.84C160.7 139.799 155.059 145.44 148.1 145.44H143.409V151.961C143.409 156.673 137.797 159.125 134.34 155.924L123.016 145.44H74.3C67.3412 145.44 61.7 139.799 61.7 132.84V127.151L47.812 140.114C44.3602 143.335 38.7275 140.888 38.7275 136.166V126.72H34.7C25.753 126.72 18.5 119.467 18.5 110.52V61.2005ZM133.7 110.52V79.2004H148.1C153.071 79.2004 157.1 83.2298 157.1 88.2004V132.84C157.1 137.811 153.071 141.84 148.1 141.84H141.609C140.615 141.84 139.809 142.646 139.809 143.64V151.961C139.809 153.532 137.938 154.349 136.786 153.282L124.944 142.319C124.611 142.011 124.175 141.84 123.721 141.84H74.3C69.3294 141.84 65.3 137.811 65.3 132.84V126.72H117.5C126.447 126.72 133.7 119.467 133.7 110.52ZM117.5 123.12L65.3 123.12H61.7L61.4525 123.12C60.9966 123.12 60.5576 123.293 60.2243 123.604L45.3557 137.482C44.2051 138.556 42.3275 137.74 42.3275 136.166V124.92C42.3275 123.926 41.5216 123.12 40.5275 123.12H34.7C27.7412 123.12 22.1 117.479 22.1 110.52V61.2005C22.1 54.2417 27.7412 48.6005 34.7 48.6005H117.5C124.459 48.6005 130.1 54.2417 130.1 61.2005V110.52C130.1 117.479 124.459 123.12 117.5 123.12ZM49.595 94.23C54.2176 94.23 57.965 90.4827 57.965 85.86C57.965 81.2374 54.2176 77.4901 49.595 77.4901C44.9724 77.4901 41.225 81.2374 41.225 85.86C41.225 90.4827 44.9724 94.23 49.595 94.23ZM84.4693 85.86C84.4693 90.4827 80.7219 94.23 76.0993 94.23C71.4767 94.23 67.7293 90.4827 67.7293 85.86C67.7293 81.2374 71.4767 77.4901 76.0993 77.4901C80.7219 77.4901 84.4693 81.2374 84.4693 85.86ZM102.605 94.23C107.228 94.23 110.975 90.4827 110.975 85.86C110.975 81.2374 107.228 77.4901 102.605 77.4901C97.9827 77.4901 94.2354 81.2374 94.2354 85.86C94.2354 90.4827 97.9827 94.23 102.605 94.23ZM137.919 47.4336C137.919 50.0527 140.042 52.1759 142.661 52.1759H152.417C155.036 52.1759 157.159 50.0527 157.159 47.4336C157.159 44.8146 155.036 42.6914 152.417 42.6914H142.661C140.042 42.6914 137.919 44.8146 137.919 47.4336ZM142.661 48.5759C142.03 48.5759 141.519 48.0645 141.519 47.4336C141.519 46.8028 142.03 46.2914 142.661 46.2914H152.417C153.048 46.2914 153.559 46.8028 153.559 47.4336C153.559 48.0645 153.048 48.5759 152.417 48.5759H142.661Z" fill="#7C7B91"/>
</svg>
