<svg width="181" height="180" viewBox="0 0 181 180" fill="none" xmlns="http://www.w3.org/2000/svg">
<ellipse opacity="0.1" cx="90.5" cy="174.599" rx="90" ry="5.4" fill="#7C7B91"/>
<path fill-rule="evenodd" clip-rule="evenodd" d="M82.8482 38.8879C82.8482 35.3039 85.7537 32.3984 89.3377 32.3984C92.9218 32.3984 95.8272 35.3039 95.8272 38.8879C95.8272 40.7169 95.0706 42.3691 93.8533 43.5487C111.968 45.2439 125.082 57.1946 126.688 75.2618C130.352 73.1845 134.588 71.9984 139.1 71.9984C153.018 71.9984 164.3 83.2809 164.3 97.1984C164.3 109.678 155.228 120.039 143.32 122.047C144.066 123.181 144.5 124.539 144.5 125.998C144.5 129.975 141.276 133.198 137.3 133.198H106.634C105.893 141.458 98.9523 147.931 90.5 147.931C82.0477 147.931 75.1073 141.458 74.3656 133.198H43.7C39.7236 133.198 36.5 129.975 36.5 125.998C36.5 122.022 39.7236 118.798 43.7 118.798H50.0229V82.6566C50.0229 62.4549 65.2593 45.8119 84.8675 43.5923C83.6237 42.41 82.8482 40.7395 82.8482 38.8879ZM123.214 77.2567C123.22 77.3733 123.235 77.4873 123.26 77.5977C117.551 82.2175 113.9 89.2816 113.9 97.1984C113.9 106.365 118.795 114.389 126.113 118.798H53.6229V82.6566C53.6229 62.9313 69.6134 46.9408 89.3386 46.9408C108.457 46.9408 122.376 58.5805 123.214 77.2567ZM78.0276 133.531C78.901 139.637 84.1524 144.331 90.5 144.331C96.8477 144.331 102.099 139.637 102.972 133.531H78.0276ZM40.1 41.1927C40.1 40.3122 40.8138 39.5984 41.6943 39.5984C42.5748 39.5984 43.2886 40.3122 43.2886 41.1927C43.2886 42.0732 42.5748 42.787 41.6943 42.787C40.8138 42.787 40.1 42.0732 40.1 41.1927ZM41.6943 35.9984C38.8256 35.9984 36.5 38.324 36.5 41.1927C36.5 44.0614 38.8256 46.387 41.6943 46.387C44.563 46.387 46.8886 44.0614 46.8886 41.1927C46.8886 38.324 44.563 35.9984 41.6943 35.9984ZM139.1 75.5984C127.171 75.5984 117.5 85.2691 117.5 97.1984C117.5 109.128 127.171 118.798 139.1 118.798C151.029 118.798 160.7 109.128 160.7 97.1984C160.7 85.2691 151.029 75.5984 139.1 75.5984ZM139.1 80.9984C136.615 80.9984 134.6 83.0132 134.6 85.4984V96.2984C134.6 98.7837 136.615 100.798 139.1 100.798C141.585 100.798 143.6 98.7837 143.6 96.2984V85.4984C143.6 83.0132 141.585 80.9984 139.1 80.9984ZM138.2 85.4984C138.2 85.0014 138.603 84.5984 139.1 84.5984C139.597 84.5984 140 85.0014 140 85.4984V96.2984C140 96.7955 139.597 97.1984 139.1 97.1984C138.603 97.1984 138.2 96.7955 138.2 96.2984V85.4984ZM134.6 108.898C134.6 111.384 136.615 113.398 139.1 113.398C141.585 113.398 143.6 111.384 143.6 108.898C143.6 106.413 141.585 104.398 139.1 104.398C136.615 104.398 134.6 106.413 134.6 108.898ZM139.1 109.798C138.603 109.798 138.2 109.395 138.2 108.898C138.2 108.401 138.603 107.998 139.1 107.998C139.597 107.998 140 108.401 140 108.898C140 109.395 139.597 109.798 139.1 109.798ZM61.5644 42.3296C61.9459 42.1535 62.3974 42.3271 62.5628 42.7134L62.6187 42.844C62.8042 43.2775 62.6099 43.7945 62.169 43.998C55.1903 47.2187 51.084 52.1476 48.7195 56.2579C47.5356 58.316 46.7875 60.1709 46.3367 61.505C46.1114 62.1718 45.9608 62.7076 45.8672 63.0722C45.8205 63.2545 45.788 63.394 45.7677 63.4855C45.7576 63.5313 45.7505 63.5651 45.7461 63.5863L45.7445 63.594L45.7426 63.6035L45.8109 63.2992L45.7391 63.6214L45.7307 63.6653C45.6467 64.1065 45.2179 64.3936 44.778 64.3032C44.3469 64.2147 44.0668 63.7964 44.1492 63.3641L44.1736 63.2358L44.1741 63.2335L44.1749 63.229L44.1764 63.2215L44.1842 63.1829L44.1848 63.18C44.1911 63.1493 44.2002 63.1066 44.2122 63.0524C44.237 62.9407 44.2744 62.7803 44.3267 62.5762C44.4313 62.1682 44.5957 61.5855 44.8378 60.8687C45.3219 59.4359 46.1185 57.4639 47.3734 55.2824C49.8869 50.9129 54.2354 45.712 61.5644 42.3296ZM40.6382 62.5678L40.6128 62.6904C40.1621 65.0561 41.6947 67.3451 44.0537 67.8296C46.461 68.3241 48.8073 66.7531 49.2671 64.3389L49.2729 64.3086L49.2823 64.2652C49.2945 64.2103 49.3178 64.1092 49.3544 63.9666C49.4276 63.681 49.5532 63.2318 49.7473 62.6574C50.1367 61.5048 50.7937 59.872 51.8401 58.053C53.9232 54.4317 57.5238 50.1067 63.6775 47.2667C65.8753 46.2523 66.8863 43.6657 65.9283 41.4274L65.8724 41.2969C64.9092 39.0465 62.2784 38.0352 60.0559 39.0609C51.9013 42.8244 47.0472 48.6297 44.2529 53.4873C42.8604 55.9079 41.9727 58.1019 41.4272 59.7164C41.1539 60.5255 40.9645 61.1949 40.8396 61.6819C40.7771 61.9256 40.7305 62.1243 40.6976 62.2728C40.6812 62.347 40.6681 62.4087 40.6581 62.4573L40.6568 62.4634L40.5932 62.8006L40.625 62.632L40.7098 62.2182L40.6568 62.4634L40.6382 62.5678Z" fill="#7C7B91"/>
</svg>
