<svg width="181" height="180" viewBox="0 0 181 180" fill="none" xmlns="http://www.w3.org/2000/svg">
<ellipse opacity="0.1" cx="90.5" cy="174.599" rx="90" ry="5.4" fill="#7C7B91"/>
<path fill-rule="evenodd" clip-rule="evenodd" d="M138.056 21.1954C138.056 18.5763 140.179 16.4531 142.798 16.4531C145.417 16.4531 147.54 18.5763 147.54 21.1954V30.9511C147.54 33.5701 145.417 35.6933 142.798 35.6933C140.179 35.6933 138.056 33.5701 138.056 30.9511V21.1954ZM142.798 20.0531C142.167 20.0531 141.656 20.5645 141.656 21.1954V30.9511C141.656 31.5819 142.167 32.0933 142.798 32.0933C143.429 32.0933 143.94 31.5819 143.94 30.9511V21.1954C143.94 20.5645 143.429 20.0531 142.798 20.0531ZM36.5 52.2018C36.5 43.2547 43.753 36.0018 52.7 36.0018H128.3C137.247 36.0018 144.5 43.2547 144.5 52.2018V112.182C155.823 114.654 164.3 124.738 164.3 136.802C164.3 150.719 153.018 162.002 139.1 162.002C127.684 162.002 118.042 154.411 114.944 144.002H52.7C43.753 144.002 36.5 136.749 36.5 127.802V52.2018ZM114.155 140.402C113.987 139.226 113.9 138.024 113.9 136.802C113.9 129.75 116.796 123.376 121.464 118.802H58.1C52.1353 118.802 47.3 113.966 47.3 108.002V57.6018C47.3 51.6371 52.1353 46.8018 58.1 46.8018H122.9C128.865 46.8018 133.7 51.6371 133.7 57.6018V108.002C133.7 109.57 133.366 111.06 132.765 112.405C134.789 111.881 136.912 111.602 139.1 111.602C139.705 111.602 140.305 111.623 140.9 111.665V52.2018C140.9 45.243 135.259 39.6018 128.3 39.6018H52.7C45.7412 39.6018 40.1 45.243 40.1 52.2018V127.802C40.1 134.761 45.7412 140.402 52.7 140.402H114.155ZM58.1 50.4018C54.1236 50.4018 50.9 53.6253 50.9 57.6018V97.8936L64.7438 83.6061C68.9873 79.2266 76.0127 79.2266 80.2562 83.6061L92.5532 96.2972C94.4609 98.2661 97.5412 98.493 99.7169 96.825L107.329 90.9891C111.206 88.017 116.594 88.017 120.471 90.9891L130.1 98.3713V57.6018C130.1 53.6253 126.876 50.4018 122.9 50.4018H58.1ZM109.73 76.735C109.73 80.8771 106.382 84.235 102.251 84.235C98.1201 84.235 94.7715 80.8771 94.7715 76.735C94.7715 72.5928 98.1201 69.235 102.251 69.235C106.382 69.235 109.73 72.5928 109.73 76.735ZM148.376 40.744C148.376 38.1249 150.499 36.0018 153.118 36.0018H162.874C165.493 36.0018 167.616 38.1249 167.616 40.744C167.616 43.3631 165.493 45.4863 162.874 45.4863H153.118C150.499 45.4863 148.376 43.3631 148.376 40.744ZM153.118 39.6018C152.487 39.6018 151.976 40.1132 151.976 40.744C151.976 41.3749 152.487 41.8863 153.118 41.8863H162.874C163.505 41.8863 164.016 41.3749 164.016 40.744C164.016 40.1132 163.505 39.6018 162.874 39.6018H153.118ZM117.5 136.802C117.5 124.872 127.171 115.202 139.1 115.202C151.029 115.202 160.7 124.872 160.7 136.802C160.7 148.731 151.029 158.402 139.1 158.402C127.171 158.402 117.5 148.731 117.5 136.802ZM134.6 125.102C134.6 122.616 136.615 120.602 139.1 120.602C141.585 120.602 143.6 122.616 143.6 125.102V135.902C143.6 138.387 141.585 140.402 139.1 140.402C136.615 140.402 134.6 138.387 134.6 135.902V125.102ZM139.1 124.202C138.603 124.202 138.2 124.605 138.2 125.102V135.902C138.2 136.399 138.603 136.802 139.1 136.802C139.597 136.802 140 136.399 140 135.902V125.102C140 124.605 139.597 124.202 139.1 124.202ZM139.1 153.002C136.615 153.002 134.6 150.987 134.6 148.502C134.6 146.016 136.615 144.002 139.1 144.002C141.585 144.002 143.6 146.016 143.6 148.502C143.6 150.987 141.585 153.002 139.1 153.002ZM138.2 148.502C138.2 148.999 138.603 149.402 139.1 149.402C139.597 149.402 140 148.999 140 148.502C140 148.005 139.597 147.602 139.1 147.602C138.603 147.602 138.2 148.005 138.2 148.502Z" fill="#7C7B91"/>
</svg>
