<svg width="181" height="180" viewBox="0 0 181 180" fill="none" xmlns="http://www.w3.org/2000/svg">
<ellipse opacity="0.1" cx="90.5" cy="174.599" rx="90" ry="5.4" fill="#7C7B91"/>
<path fill-rule="evenodd" clip-rule="evenodd" d="M129.431 29.4506C130.982 27.3398 133.95 26.8858 136.061 28.4364C138.171 29.987 138.625 32.9551 137.075 35.0658L131.299 42.928C129.748 45.0387 126.78 45.4928 124.669 43.9422C122.559 42.3916 122.105 39.4235 123.655 37.3127L129.431 29.4506ZM133.929 31.3376C133.421 30.9642 132.706 31.0735 132.332 31.5819L126.557 39.4441C126.183 39.9525 126.292 40.6674 126.801 41.0409C127.309 41.4144 128.024 41.305 128.398 40.7966L134.173 32.9345C134.547 32.4261 134.438 31.7111 133.929 31.3376ZM43.9121 76.0349C43.9121 52.9796 62.6022 34.2895 85.6575 34.2895C108.713 34.2895 127.403 52.9796 127.403 76.0349C127.403 99.0903 108.713 117.78 85.6575 117.78C62.6022 117.78 43.9121 99.0903 43.9121 76.0349ZM85.6575 30.6895C60.614 30.6895 40.3121 50.9913 40.3121 76.0349C40.3121 101.078 60.614 121.38 85.6575 121.38C93.8903 121.38 101.611 119.186 108.266 115.351L114.151 121.237C113.983 123.738 114.855 126.296 116.767 128.208L134.928 146.37C138.443 149.884 144.142 149.884 147.656 146.37L151.572 142.454C155.087 138.939 155.087 133.24 151.572 129.726L133.411 111.564C131.499 109.652 128.94 108.78 126.438 108.949L121.414 103.925C127.423 96.2329 131.003 86.5521 131.003 76.0349C131.003 50.9913 110.701 30.6895 85.6575 30.6895ZM122.536 110.138L119.079 106.682C116.777 109.191 114.196 111.44 111.386 113.38L115.34 117.334C115.724 116.672 116.2 116.048 116.767 115.48L120.683 111.564C121.25 110.998 121.874 110.522 122.536 110.138ZM106.47 70.585C107.359 70.1404 107.719 69.0592 107.275 68.1701C106.83 67.2809 105.749 66.9205 104.86 67.3651L90.7368 74.4265C90.127 74.7314 89.7418 75.3547 89.7418 76.0365C89.7418 76.7183 90.127 77.3415 90.7368 77.6464L104.86 84.7079C105.749 85.1524 106.83 84.792 107.275 83.9029C107.719 83.0137 107.359 81.9325 106.47 81.4879L95.5667 76.0365L106.47 70.585ZM64.0387 68.1701C63.5941 69.0592 63.9545 70.1404 64.8437 70.585L75.7466 76.0365L64.8437 81.4879C63.9545 81.9325 63.5941 83.0137 64.0387 83.9029C64.4833 84.792 65.5645 85.1524 66.4536 84.7079L80.5765 77.6464C81.1863 77.3415 81.5715 76.7183 81.5715 76.0365C81.5715 75.3547 81.1863 74.7314 80.5765 74.4265L66.4536 67.3651C65.5645 66.9205 64.4833 67.2809 64.0387 68.1701ZM55.6807 76.0344C55.6807 59.4789 69.1016 46.0581 85.6571 46.0581C102.213 46.0581 115.633 59.4789 115.633 76.0344C115.633 92.5899 102.213 106.011 85.6571 106.011C69.1016 106.011 55.6807 92.5899 55.6807 76.0344ZM85.6571 42.4581C67.1133 42.4581 52.0807 57.4907 52.0807 76.0344C52.0807 94.5782 67.1133 109.611 85.6571 109.611C104.201 109.611 119.233 94.5782 119.233 76.0344C119.233 57.4907 104.201 42.4581 85.6571 42.4581ZM149.422 46.8845C148.625 44.3894 145.957 43.0121 143.462 43.8083L134.168 46.774C131.673 47.5702 130.296 50.2383 131.092 52.7334C131.888 55.2286 134.556 56.6058 137.051 55.8096L146.345 52.8439C148.84 52.0477 150.218 49.3796 149.422 46.8845ZM144.556 47.2379C145.157 47.0461 145.8 47.3779 145.992 47.9789C146.184 48.5799 145.852 49.2225 145.251 49.4143L135.957 52.38C135.356 52.5718 134.713 52.24 134.522 51.639C134.33 51.038 134.661 50.3954 135.262 50.2036L144.556 47.2379ZM28.034 102.824C25.5195 103.556 24.0751 106.189 24.8078 108.703C25.5405 111.218 28.1729 112.662 30.6874 111.929L40.0535 109.2C42.568 108.467 44.0124 105.835 43.2797 103.32C42.547 100.806 39.9146 99.3615 37.4001 100.094L28.034 102.824ZM28.264 107.696C28.0875 107.09 28.4355 106.456 29.0411 106.28L38.4072 103.55C39.0129 103.374 39.647 103.722 39.8234 104.328C39.9999 104.933 39.652 105.567 39.0464 105.744L29.6802 108.473C29.0746 108.65 28.4405 108.302 28.264 107.696ZM37.5559 127.582C35.4852 125.978 35.1064 122.999 36.71 120.929L42.6831 113.215C44.2867 111.144 47.2653 110.766 49.3361 112.369C51.4069 113.973 51.7856 116.952 50.182 119.022L44.2089 126.736C42.6053 128.806 39.6267 129.185 37.5559 127.582ZM39.5563 123.133C39.1701 123.631 39.2613 124.349 39.7601 124.735C40.2589 125.121 40.9763 125.03 41.3626 124.531L47.3357 116.818C47.7219 116.319 47.6307 115.602 47.1319 115.216C46.6332 114.829 45.9157 114.921 45.5294 115.419L39.5563 123.133Z" fill="#7C7B91"/>
</svg>
