<svg width="181" height="181" viewBox="0 0 181 181" fill="none" xmlns="http://www.w3.org/2000/svg">
<ellipse opacity="0.1" cx="90.5" cy="175.064" rx="90" ry="5.4" fill="#7C7B91"/>
<path fill-rule="evenodd" clip-rule="evenodd" d="M36.0445 30.0233C34.8379 27.6988 31.9753 26.7925 29.6507 27.9991C27.3261 29.2056 26.4198 32.0682 27.6264 34.3928L32.1208 43.0516C33.3274 45.3761 36.19 46.2824 38.5146 45.0758C40.8392 43.8693 41.7455 41.0067 40.5389 38.6821L36.0445 30.0233ZM31.3092 31.1943C31.8691 30.9036 32.5586 31.1219 32.8493 31.6818L37.3437 40.3406C37.6343 40.9005 37.416 41.59 36.8561 41.8806C36.2962 42.1713 35.6066 41.953 35.316 41.3931L30.8216 32.7343C30.531 32.1744 30.7493 31.4849 31.3092 31.1943ZM47.9539 50.7208C41.9892 50.7208 37.1539 55.5561 37.1539 61.5208V137.307C37.1539 143.272 41.9892 148.107 47.9539 148.107H119.954C125.919 148.107 130.754 143.272 130.754 137.307V125.618C123.222 121.261 118.154 113.117 118.154 103.789C118.154 94.4616 123.222 86.3176 130.754 81.9604V61.5208C130.754 55.5561 125.919 50.7208 119.954 50.7208H112.568V53.4512C112.568 58.4218 108.538 62.4512 103.568 62.4512H67.9402C62.9696 62.4512 58.9402 58.4218 58.9402 53.4512V50.7208H47.9539ZM134.354 80.2438V61.5208C134.354 53.5679 127.907 47.1208 119.954 47.1208H96.294C95.0715 42.4419 90.816 38.9891 85.754 38.9891C80.692 38.9891 76.4365 42.4419 75.214 47.1208H47.9539C40.001 47.1208 33.5539 53.5679 33.5539 61.5208V137.307C33.5539 145.26 40.001 151.707 47.9539 151.707H119.954C127.907 151.707 134.354 145.26 134.354 137.307V127.334C137.149 128.403 140.183 128.989 143.354 128.989C157.271 128.989 168.554 117.707 168.554 103.789C168.554 89.8715 157.271 78.5891 143.354 78.5891C140.183 78.5891 137.149 79.1748 134.354 80.2438ZM13.6034 44.1693C14.7748 41.8268 17.6234 40.8774 19.9659 42.0488L28.6914 46.4121C31.0339 47.5835 31.9833 50.4321 30.8119 52.7747C29.6405 55.1172 26.7919 56.0665 24.4494 54.8951L15.7238 50.5318C13.3813 49.3604 12.432 46.5118 13.6034 44.1693ZM18.3557 45.2687C17.7915 44.9865 17.1054 45.2152 16.8232 45.7794C16.5411 46.3437 16.7697 47.0298 17.334 47.3119L26.0595 51.6753C26.6237 51.9574 27.3099 51.7288 27.592 51.1645C27.8742 50.6003 27.6455 49.9141 27.0813 49.632L18.3557 45.2687ZM75.5744 86.937C75.5744 84.4517 77.5891 82.437 80.0744 82.437H110.674C113.16 82.437 115.174 84.4517 115.174 86.937C115.174 89.4223 113.16 91.437 110.674 91.437H80.0744C77.5891 91.437 75.5744 89.4223 75.5744 86.937ZM80.0744 103.51C77.5891 103.51 75.5744 105.524 75.5744 108.01C75.5744 110.495 77.5891 112.51 80.0744 112.51H110.674C113.16 112.51 115.174 110.495 115.174 108.01C115.174 105.524 113.16 103.51 110.674 103.51H80.0744ZM79.1744 108.01C79.1744 107.513 79.5773 107.11 80.0744 107.11H110.674C111.171 107.11 111.574 107.513 111.574 108.01C111.574 108.507 111.171 108.91 110.674 108.91H80.0744C79.5773 108.91 79.1744 108.507 79.1744 108.01ZM75.5744 130.044C75.5744 127.559 77.5891 125.544 80.0744 125.544H110.674C113.16 125.544 115.174 127.559 115.174 130.044C115.174 132.529 113.16 134.544 110.674 134.544H80.0744C77.5891 134.544 75.5744 132.529 75.5744 130.044ZM80.0744 129.144C79.5773 129.144 79.1744 129.547 79.1744 130.044C79.1744 130.541 79.5773 130.944 80.0744 130.944H110.674C111.171 130.944 111.574 130.541 111.574 130.044C111.574 129.547 111.171 129.144 110.674 129.144H80.0744ZM55.4632 85.3233C55.4632 82.341 57.8809 79.9233 60.8633 79.9233H63.7184C66.7008 79.9233 69.1184 82.341 69.1184 85.3233V88.1785C69.1184 91.1608 66.7008 93.5785 63.7184 93.5785H60.8632C57.8809 93.5785 55.4632 91.1608 55.4632 88.1785V85.3233ZM60.8633 100.996C57.8809 100.996 55.4632 103.414 55.4632 106.396V109.251C55.4632 112.233 57.8809 114.651 60.8632 114.651H63.7184C66.7008 114.651 69.1184 112.233 69.1184 109.251V106.396C69.1184 103.414 66.7008 100.996 63.7184 100.996H60.8633ZM59.0633 106.396C59.0633 105.402 59.8691 104.596 60.8633 104.596H63.7184C64.7125 104.596 65.5184 105.402 65.5184 106.396V109.251C65.5184 110.245 64.7125 111.051 63.7184 111.051H60.8632C59.8691 111.051 59.0633 110.245 59.0633 109.251V106.396ZM55.4632 128.43C55.4632 125.448 57.8809 123.03 60.8633 123.03H63.7184C66.7008 123.03 69.1184 125.448 69.1184 128.43V131.285C69.1184 134.268 66.7008 136.685 63.7184 136.685H60.8632C57.8809 136.685 55.4632 134.268 55.4632 131.285V128.43ZM60.8633 126.63C59.8691 126.63 59.0633 127.436 59.0633 128.43V131.285C59.0633 132.279 59.8691 133.085 60.8632 133.085H63.7184C64.7125 133.085 65.5184 132.279 65.5184 131.285V128.43C65.5184 127.436 64.7125 126.63 63.7184 126.63H60.8633ZM121.754 103.789C121.754 91.8598 131.425 82.1891 143.354 82.1891C155.283 82.1891 164.954 91.8598 164.954 103.789C164.954 115.718 155.283 125.389 143.354 125.389C131.425 125.389 121.754 115.718 121.754 103.789ZM138.854 92.0891C138.854 89.6038 140.869 87.5891 143.354 87.5891C145.839 87.5891 147.854 89.6038 147.854 92.0891V102.889C147.854 105.374 145.839 107.389 143.354 107.389C140.869 107.389 138.854 105.374 138.854 102.889V92.0891ZM143.354 91.1891C142.857 91.1891 142.454 91.5921 142.454 92.0891V102.889C142.454 103.386 142.857 103.789 143.354 103.789C143.851 103.789 144.254 103.386 144.254 102.889V92.0891C144.254 91.5921 143.851 91.1891 143.354 91.1891ZM143.354 119.989C140.869 119.989 138.854 117.974 138.854 115.489C138.854 113.004 140.869 110.989 143.354 110.989C145.839 110.989 147.854 113.004 147.854 115.489C147.854 117.974 145.839 119.989 143.354 119.989ZM142.454 115.489C142.454 115.986 142.857 116.389 143.354 116.389C143.851 116.389 144.254 115.986 144.254 115.489C144.254 114.992 143.851 114.589 143.354 114.589C142.857 114.589 142.454 114.992 142.454 115.489Z" fill="#7C7B91"/>
</svg>
