<svg width="181" height="181" viewBox="0 0 181 181" fill="none" xmlns="http://www.w3.org/2000/svg">
<ellipse opacity="0.1" cx="90.5" cy="175.064" rx="90" ry="5.4" fill="#7C7B91"/>
<path fill-rule="evenodd" clip-rule="evenodd" d="M13.1 40.0633C13.1 28.1339 22.7706 18.4633 34.7 18.4633C46.6293 18.4633 56.3 28.1339 56.3 40.0633C56.3 45.8318 54.0387 51.0723 50.3542 54.9464C50.0863 55.1922 49.829 55.4495 49.5831 55.7175C45.709 59.402 40.4686 61.6633 34.7 61.6633C22.7706 61.6633 13.1 51.9926 13.1 40.0633ZM46.4044 62.3861C42.907 64.2236 38.9249 65.2633 34.7 65.2633C34.0948 65.2633 33.4945 65.242 32.9 65.2V115.612C32.9 120.582 36.9294 124.612 41.9 124.612H46.2699V64.2332C46.2699 63.6057 46.3158 62.9889 46.4044 62.3861ZM29.3 64.6834C17.9773 62.2113 9.5 52.1273 9.5 40.0633C9.5 26.1457 20.7824 14.8633 34.7 14.8633C46.764 14.8633 56.8481 23.3406 59.3201 34.6633H122.129C129.087 34.6633 134.729 40.3045 134.729 47.2633V51.6332H139.098C146.057 51.6332 151.698 57.2744 151.698 64.2332V132.582C151.698 139.541 146.057 145.182 139.098 145.182H58.8699C51.9111 145.182 46.2699 139.541 46.2699 132.582V128.212H41.9C34.9412 128.212 29.3 122.571 29.3 115.612V64.6834ZM59.8367 38.2633C59.8787 38.8578 59.9 39.4581 59.9 40.0633C59.9 44.2882 58.8603 48.2703 57.0228 51.7676C57.6257 51.6791 58.2424 51.6332 58.8699 51.6332H131.129V47.2633C131.129 42.2927 127.099 38.2633 122.129 38.2633H59.8367ZM52.1637 58.2308C52.4029 58.0009 52.6376 57.7662 52.8675 57.527C54.4601 56.1006 56.5637 55.2332 58.8699 55.2332H139.098C144.069 55.2332 148.098 59.2626 148.098 64.2332V132.582C148.098 137.552 144.069 141.582 139.098 141.582H58.8699C53.8994 141.582 49.8699 137.552 49.8699 132.582V64.2332C49.8699 61.927 50.7373 59.8234 52.1637 58.2308ZM152.439 32.3852C155.058 32.3852 157.181 34.5083 157.181 37.1274C157.181 39.7465 155.058 41.8697 152.439 41.8697H142.683C140.064 41.8697 137.941 39.7465 137.941 37.1274C137.941 34.5083 140.064 32.3852 142.683 32.3852H152.439ZM153.581 37.1274C153.581 36.4966 153.069 35.9852 152.439 35.9852H142.683C142.052 35.9852 141.541 36.4966 141.541 37.1274C141.541 37.7583 142.052 38.2697 142.683 38.2697L152.439 38.2697C153.069 38.2697 153.581 37.7583 153.581 37.1274ZM121.514 84.9132C121.514 88.3534 118.725 91.1423 115.285 91.1423C111.845 91.1423 109.056 88.3534 109.056 84.9132C109.056 81.473 111.845 78.6842 115.285 78.6842C118.725 78.6842 121.514 81.473 121.514 84.9132ZM89.0052 103.823H97.6228C99.9151 101.442 103.135 99.961 106.701 99.961H124.091C131.051 99.961 136.692 105.603 136.692 112.562C136.692 114.65 135 116.343 132.912 116.343H115.766C116.023 117.484 116.159 118.671 116.159 119.891C116.159 122.553 114.001 124.711 111.339 124.711H66.6714C64.0093 124.711 61.8512 122.553 61.8512 119.891C61.8512 111.017 69.0446 103.823 77.9184 103.823H89.0052ZM106.701 103.561C105.549 103.561 104.448 103.777 103.436 104.171C108.289 105.199 112.334 108.417 114.486 112.743H132.912C133.012 112.743 133.092 112.662 133.092 112.562C133.092 107.591 129.062 103.561 124.091 103.561H106.701ZM125.114 84.9132C125.114 90.3417 120.714 94.7423 115.285 94.7423C109.857 94.7423 105.456 90.3417 105.456 84.9132C105.456 79.4848 109.857 75.0842 115.285 75.0842C120.714 75.0842 125.114 79.4848 125.114 84.9132ZM101.4 84.6321C101.4 91.5537 95.7892 97.1647 88.8676 97.1647C81.9461 97.1647 76.335 91.5537 76.335 84.6321C76.335 77.7105 81.9461 72.0994 88.8676 72.0994C95.7892 72.0994 101.4 77.7105 101.4 84.6321ZM22.1 140.206C22.1 142.825 24.2232 144.948 26.8423 144.948H36.5979C39.217 144.948 41.3402 142.825 41.3402 140.206C41.3402 137.587 39.217 135.464 36.5979 135.464H26.8423C24.2232 135.464 22.1 137.587 22.1 140.206ZM26.8423 141.348C26.2114 141.348 25.7 140.837 25.7 140.206C25.7 139.575 26.2114 139.064 26.8423 139.064L36.5979 139.064C37.2288 139.064 37.7402 139.575 37.7402 140.206C37.7402 140.837 37.2288 141.348 36.5979 141.348H26.8423ZM30.2 28.3633C30.2 25.878 32.2147 23.8633 34.7 23.8633C37.1853 23.8633 39.2 25.878 39.2 28.3633V39.1633C39.2 41.6486 37.1853 43.6633 34.7 43.6633C32.2147 43.6633 30.2 41.6486 30.2 39.1633V28.3633ZM34.7 27.4633C34.2029 27.4633 33.8 27.8662 33.8 28.3633V39.1633C33.8 39.6603 34.2029 40.0633 34.7 40.0633C35.1971 40.0633 35.6 39.6603 35.6 39.1633V28.3633C35.6 27.8662 35.1971 27.4633 34.7 27.4633ZM34.7 56.2633C32.2147 56.2633 30.2 54.2486 30.2 51.7633C30.2 49.278 32.2147 47.2633 34.7 47.2633C37.1853 47.2633 39.2 49.278 39.2 51.7633C39.2 54.2486 37.1853 56.2633 34.7 56.2633ZM33.8 51.7633C33.8 52.2603 34.2029 52.6633 34.7 52.6633C35.1971 52.6633 35.6 52.2603 35.6 51.7633C35.6 51.2662 35.1971 50.8633 34.7 50.8633C34.2029 50.8633 33.8 51.2662 33.8 51.7633Z" fill="#7C7B91"/>
</svg>
